<svg width="22" height="17" viewBox="0 0 22 17" fill="none" xmlns="http://www.w3.org/2000/svg">
<path fill-rule="evenodd" clip-rule="evenodd" d="M19.9817 0C20.6409 0 21.2262 0.316877 21.5946 0.807008L10.897 9.80349L0.29464 0.970375C0.649132 0.388433 1.2885 0 2.01835 0H19.9817ZM0 14.9762V2.56677L7.60745 8.90476L0.0156821 15.2297C0.00533414 15.1466 0 15.062 0 14.9762ZM0.695748 16.505C1.04997 16.8133 1.51242 17 2.01835 17H19.9817C20.4165 17 20.8192 16.8621 21.1487 16.6276L13.0649 9.82925L11.6112 11.0518C11.2001 11.3975 10.6012 11.3989 10.1884 11.0551L8.71283 9.8257L0.695748 16.505ZM14.1642 8.90476L21.9448 15.4481C21.9809 15.2967 22 15.1387 22 14.9762V2.31504L14.1642 8.90476Z" fill="#6D98A7"/>
</svg>
