<svg width="227" height="55" viewBox="0 0 227 55" fill="none" xmlns="http://www.w3.org/2000/svg">
<path d="M42.6355 43.4731L41.6302 43.7245" stroke="#6D98A7" stroke-width="2"/>
<path d="M36.6875 33.8393H37.7766H38.6143V33.8393C38.8408 33.8393 38.9847 33.5969 38.8763 33.3981L38.6482 32.9799C38.6257 32.9387 38.6083 32.8949 38.5964 32.8495L38.1955 31.3261L37.7766 29.4831L37.4415 27.305L37.1715 25.6173C37.1282 25.3466 37.1064 25.073 37.1064 24.7988V24.7988C37.1064 24.1847 36.9972 23.5754 36.7839 22.9995L36.2687 21.6084" stroke="#6D98A7" stroke-width="2"/>
<path d="M42.5517 43.4657H44.3475H45.7157H47.597H48.8796V43.4657C49.3173 43.4657 49.7365 43.6416 50.0432 43.9537L50.1649 44.0776C50.3329 44.2486 50.5297 44.3888 50.7463 44.4916L51.7016 44.9454L52.3254 45.1923C52.9342 45.4333 53.565 45.6146 54.2089 45.7338V45.7338C54.8164 45.8462 55.433 45.9028 56.0508 45.9028H57.1744H59.8253H60.428C61.1082 45.9028 61.7871 45.8456 62.4577 45.7319V45.7319C63.1528 45.6139 63.8363 45.4357 64.5005 45.1991L65.2126 44.9454L65.4626 44.8563C66.4322 44.5109 67.3539 44.0437 68.2055 43.4657V43.4657L68.94 42.8116C69.3551 42.4419 69.6649 41.969 69.8379 41.4408V41.4408C69.9461 41.1103 70.1083 40.8001 70.318 40.5227L70.594 40.1575C70.7687 39.9263 70.9215 39.6793 71.0837 39.4391C71.2472 39.197 71.4527 38.941 71.6261 38.8528C71.6528 38.8392 71.6862 38.8194 71.7253 38.7944C72.8632 38.0659 73.9703 37.2832 75.2176 36.7639V36.7639L77.4409 35.8935L78.8946 35.3713L78.9398 35.3526C80.4459 34.728 82.0048 34.2391 83.5979 33.8916V33.8916L86.3343 33.2824L87.617 32.9342L88.9821 32.6034C89.2682 32.5341 89.5615 32.499 89.8558 32.499H90.3481C90.5209 32.499 90.6919 32.5338 90.851 32.6013L91.4063 32.8368C91.5456 32.8958 91.6361 33.0325 91.6361 33.1838V33.1838C91.6361 33.2484 91.6527 33.312 91.6843 33.3683L91.8336 33.6341C91.9283 33.803 91.9781 33.9959 91.9781 34.1895V34.1895C91.9781 34.5461 91.8075 34.8861 91.519 35.0958V35.0958C91.4266 35.163 91.345 35.244 91.2772 35.336L90.6099 36.2416L90.1326 36.7814C89.9383 37.0011 89.7694 37.2419 89.6289 37.4993V37.4993C89.4853 37.7625 89.3119 38.0083 89.1122 38.2318L88.9215 38.4453C88.6793 38.7165 88.4607 39.0077 88.268 39.316L87.959 39.8102L87.617 40.5065L87.2749 41.3768" stroke="#6D98A7" stroke-width="2"/>
<path d="M42.5517 44.0598V44.0598C42.5517 43.921 42.4392 43.8084 42.3004 43.8084H39.8445H36.8754H34.0809H31.1118L28.1426 43.5571" stroke="#6D98A7" stroke-width="2"/>
<path d="M28.2264 43.6408L23.1162 43.3057L19.2626 42.9706H18.3299C17.5058 42.9706 16.6878 42.8289 15.9117 42.5517V42.5517L13.8174 41.714L11.5555 40.6249L9.46113 39.7034L7.19925 38.363L5.27245 37.1902L3.51321 36.1011L2.34038 35.2634L1.67019 34.677L1.23695 34.2437C1.14951 34.1563 1.21144 34.0068 1.33509 34.0068V34.0068H2.75925H36.2891C36.6857 34.0068 36.9306 33.5742 36.7266 33.2342V33.2342C36.7007 33.191 36.6813 33.1442 36.6691 33.0954L36.4362 32.1638V32.1638C36.2693 31.4961 36.1849 30.8105 36.1849 30.1223V29.8181V29.2434C36.1849 28.7898 36.1428 28.3372 36.0592 27.8913V27.8913C35.9757 27.4455 35.9336 26.9929 35.9336 26.5393V25.9336C35.9336 25.4525 35.9756 24.9723 36.0592 24.4985L36.09 24.3243C36.1531 23.9664 36.1849 23.6037 36.1849 23.2402V23.2402C36.1849 22.7681 36.2385 22.2976 36.3446 21.8376L36.4362 21.4408L36.6875 20.603L37.1902 19.3464L37.5522 18.5707C37.701 18.2517 37.8038 17.9132 37.8573 17.5653L37.8667 17.504C37.918 17.1705 37.918 16.8311 37.8667 16.4975L37.8557 16.4257C37.8034 16.0857 37.6911 15.7578 37.5241 15.4571V15.4571C37.4136 15.2582 37.2801 15.073 37.1263 14.9053L36.4362 14.1525L35.1796 12.9796L35.1248 12.9193C34.6043 12.3467 34.1453 11.7212 33.7555 11.0528V11.0528L33.1691 9.88L32.9461 9.3598C32.7601 8.92566 32.6148 8.47512 32.5124 8.01404V8.01404C32.392 7.47247 32.3313 6.91936 32.3313 6.36458V5.69132V5.45634C32.3313 4.7242 32.4494 3.99684 32.6809 3.30227V3.30227C32.7828 2.99649 32.9063 2.69833 33.0505 2.41003L33.1691 2.17283L33.5492 1.48864C33.575 1.44221 33.6046 1.39802 33.6378 1.35654L33.8381 1.10617C33.8918 1.03907 33.973 1 34.059 1V1C34.2152 1 34.3419 1.12666 34.3419 1.2829V1.58642V1.7942C34.3419 2.20496 34.4635 2.60653 34.6913 2.9483V2.9483C34.793 3.10084 34.9144 3.23927 35.0524 3.35999L36.1849 4.35094L36.2108 4.37421C36.7511 4.8605 37.3309 5.30105 37.9442 5.69132V5.69132L39.0332 6.36151L39.9547 6.94792V6.94792C40.4009 7.2826 40.8422 7.63221 41.195 8.06425C41.243 8.12304 41.2789 8.17222 41.2951 8.20453C41.3463 8.30687 41.6612 8.61107 41.9191 8.84866C42.0541 8.97298 42.1328 9.14726 42.1328 9.33076V9.33076C42.1328 9.46976 42.1779 9.60502 42.2613 9.71622L42.3621 9.85063C42.3768 9.87017 42.3896 9.89099 42.4006 9.91284V9.91284C42.4882 10.0881 42.6882 10.1761 42.8766 10.1223L43.5552 9.92838C43.6675 9.89628 43.7838 9.88 43.9006 9.88H44.5623H44.9489C45.2469 9.88 45.5422 9.93687 45.8189 10.0475V10.0475C46.0956 10.1582 46.3919 10.2065 46.6879 10.2416C46.8904 10.2657 47.0856 10.309 47.1592 10.3826C47.3268 10.5502 47.5781 10.3826 47.8294 10.7177C48.0305 10.9858 48.5834 11.0528 48.8347 11.0528C48.9464 11.0528 49.2703 11.0528 49.6725 11.0528C49.7099 11.0528 49.7491 11.0528 49.7896 11.0528C50.545 11.0528 51.2961 10.9399 52.0181 10.7177V10.7177L52.3894 10.5527C52.644 10.4395 52.8886 10.3049 53.1205 10.1503L53.1317 10.1429C53.394 9.96805 53.6383 9.76776 53.8611 9.54491V9.54491L54.0912 9.36085C54.2134 9.26308 54.3653 9.20981 54.5218 9.20981H54.6665C54.7924 9.20981 54.9108 9.26905 54.9863 9.36972V9.36972C55.0682 9.47886 55.0887 9.62221 55.0408 9.74995L54.9289 10.0484C54.8876 10.1586 54.8664 10.2754 54.8664 10.3931V10.4335C54.8664 10.6204 54.8229 10.8048 54.7393 10.972L54.6989 11.0528L54.28 11.8906L53.8611 12.7283L53.7762 12.8982C53.6111 13.2284 53.3817 13.5222 53.1014 13.7625V13.7625C52.9937 13.8548 52.8933 13.9552 52.801 14.0629L52.7134 14.1651C52.5295 14.3796 52.3121 14.5644 52.1307 14.781C52.0654 14.8591 52.0181 14.935 52.0181 14.9902C52.0181 15.063 51.8038 15.1886 51.5498 15.3105C51.1444 15.5051 50.733 15.6886 50.3426 15.9117V15.9117L49.7654 16.2581C49.5949 16.3603 49.3999 16.4143 49.2011 16.4143V16.4143C49.0696 16.4143 48.9393 16.438 48.816 16.4838C48.5698 16.5752 48.2365 16.6975 48.0808 16.7494C47.8294 16.8332 47.3268 17.0008 46.9917 17.0008C46.6566 17.0008 46.2377 17.0008 45.9026 17.0008C45.5675 17.0008 45.2325 17.2521 44.8974 17.2521C44.5623 17.2521 44.1434 17.2521 43.7245 17.2521C43.3057 17.2521 43.0543 17.2521 42.803 17.2521V17.2521C42.393 17.2521 42.2583 17.854 42.1831 18.2571C42.1454 18.4596 42.1328 18.6482 42.1328 18.76V19.0951V19.0951C42.1328 19.7049 42.2377 20.3102 42.4428 20.8844L42.5517 21.1894L43.2219 22.5298L43.9758 23.7864L44.8974 24.9592L45.1556 25.3144C45.4292 25.6905 45.7483 26.0313 46.1056 26.3291L46.2552 26.4538C46.4663 26.6298 46.6579 26.8279 46.8267 27.0448V27.0448C47.0473 27.3285 47.3067 27.5797 47.5974 27.7911L47.6631 27.8389C47.9406 28.0407 48.1935 28.2742 48.4168 28.5347L48.5834 28.7291L48.8347 28.9804" stroke="#6D98A7" stroke-width="2"/>
<path d="M92.1457 33.8395L92.5766 32.5466C92.7336 32.0756 92.7707 31.5728 92.6844 31.0839L92.6761 31.0372C92.6027 30.6211 92.4353 30.2271 92.1868 29.8854V29.8854C91.9934 29.6194 91.7543 29.3899 91.4806 29.2074L91.4277 29.1721C90.9126 28.8287 90.3074 28.6455 89.6884 28.6455H88.2083L85.36 28.9806L82.4279 29.4832L79.4959 30.4048L75.726 31.41L73.1291 32.0802L68.6891 33.0017L65.757 33.3368H62.4898H59.2226L57.75 33.1732C56.7243 33.0592 55.7141 32.8335 54.7374 32.5L53.6606 32.1323C53.0714 31.9311 52.5147 31.6451 52.0081 31.2832V31.2832C51.7359 31.0888 51.449 30.916 51.1499 30.7665L51.1379 30.7605C50.6653 30.5242 50.2229 30.2318 49.8203 29.8896L48.7509 28.9806" stroke="#6D98A7" stroke-width="2"/>
<path d="M92.2294 33.8394H93.9049H95.5804H97.4234H98.8475H100.858H102.617H104.293H106.136H107.979H109.906H111.414V33.8394C111.652 33.8394 111.787 34.1139 111.64 34.3022L111.438 34.562C111.422 34.5828 111.404 34.6022 111.384 34.6199L110.576 35.3473V35.3473C110.131 35.7924 109.633 36.1812 109.093 36.5051L108.649 36.7714L107.476 37.4416L106.136 38.2794L104.963 39.0333L103.706 39.7035L102.617 40.2061L101.528 40.5412V40.5412C100.862 40.7632 100.165 40.8763 99.4634 40.8763H98.8475L97.2558 41.0439L95.4128 41.2952H93.486H91.2242H89.4649H87.7894V41.2952C87.2196 41.2952 86.6934 41.6005 86.4107 42.0953L86.1977 42.468L85.5275 43.5571L84.6898 44.6461L84.5361 44.8254C83.9694 45.4866 83.3483 46.0992 82.6792 46.6567V46.6567L81.674 47.4944L80.5011 48.3322L79.1608 49.1699L77.7366 50.0077L76.2287 50.7616L74.9721 51.2643L73.2966 51.7669L71.7049 52.2695L70.3645 52.6884L68.9404 53.0235V53.0235C67.8821 53.2463 66.8036 53.3586 65.7221 53.3586H65.6732H64.1653H62.3223H60.7306H59.1389H58.7613C57.8436 53.3586 56.9295 53.2461 56.0392 53.0235V53.0235L54.6989 52.6884L53.1909 52.2695V52.2695C52.1335 51.9356 51.1189 51.4787 50.1679 50.9081L49.9238 50.7616L49.7351 50.6484C49.0249 50.2223 48.3585 49.727 47.7457 49.1699V49.1699L46.5728 48.3322L45.5675 47.4944L44.5623 46.6567L44.3974 46.5068C43.8945 46.0497 43.4441 45.538 43.0543 44.9812V44.9812L42.4679 44.1435" stroke="#6D98A7" stroke-width="2"/>
<path d="M135.96 43V33.58L136.44 34.08H132.08V32.4H141.76V34.08H137.42L137.88 33.58V43H135.96ZM144.263 47C143.757 47 143.263 46.9133 142.783 46.74C142.303 46.58 141.89 46.34 141.543 46.02L142.363 44.58C142.63 44.8333 142.923 45.0267 143.243 45.16C143.563 45.2933 143.903 45.36 144.263 45.36C144.73 45.36 145.117 45.24 145.423 45C145.73 44.76 146.017 44.3333 146.283 43.72L146.943 42.26L147.143 42.02L151.303 32.4H153.183L148.043 44.06C147.737 44.8067 147.39 45.3933 147.003 45.82C146.63 46.2467 146.217 46.5467 145.763 46.72C145.31 46.9067 144.81 47 144.263 47ZM146.783 43.34L141.943 32.4H143.943L148.063 41.84L146.783 43.34ZM160.769 43.12C159.889 43.12 159.082 42.92 158.349 42.52C157.629 42.1067 157.049 41.5 156.609 40.7C156.182 39.9 155.969 38.9 155.969 37.7C155.969 36.5 156.176 35.5 156.589 34.7C157.016 33.9 157.589 33.3 158.309 32.9C159.042 32.5 159.862 32.3 160.769 32.3C161.809 32.3 162.729 32.5267 163.529 32.98C164.329 33.4333 164.962 34.0667 165.429 34.88C165.896 35.68 166.129 36.62 166.129 37.7C166.129 38.78 165.896 39.7267 165.429 40.54C164.962 41.3533 164.329 41.9867 163.529 42.44C162.729 42.8933 161.809 43.12 160.769 43.12ZM155.149 46.88V32.4H156.989V35.26L156.869 37.72L157.069 40.18V46.88H155.149ZM160.609 41.44C161.289 41.44 161.896 41.2867 162.429 40.98C162.976 40.6733 163.402 40.24 163.709 39.68C164.029 39.1067 164.189 38.4467 164.189 37.7C164.189 36.94 164.029 36.2867 163.709 35.74C163.402 35.18 162.976 34.7467 162.429 34.44C161.896 34.1333 161.289 33.98 160.609 33.98C159.942 33.98 159.336 34.1333 158.789 34.44C158.256 34.7467 157.829 35.18 157.509 35.74C157.202 36.2867 157.049 36.94 157.049 37.7C157.049 38.4467 157.202 39.1067 157.509 39.68C157.829 40.24 158.256 40.6733 158.789 40.98C159.336 41.2867 159.942 41.44 160.609 41.44ZM175.239 43.16C175.225 43.16 175.179 43.16 175.099 43.16C175.032 43.16 174.965 43.16 174.899 43.16C174.832 43.16 174.792 43.16 174.779 43.16C172.605 43.1333 170.919 42.6533 169.719 41.72C168.519 40.7733 167.919 39.4267 167.919 37.68C167.919 35.9467 168.519 34.62 169.719 33.7C170.932 32.7667 172.639 32.2933 174.839 32.28C174.865 32.28 174.905 32.28 174.959 32.28C175.025 32.28 175.085 32.28 175.139 32.28C175.205 32.28 175.245 32.28 175.259 32.28C177.485 32.28 179.212 32.7467 180.439 33.68C181.679 34.6133 182.299 35.9467 182.299 37.68C182.299 39.44 181.679 40.7933 180.439 41.74C179.199 42.6867 177.465 43.16 175.239 43.16ZM175.199 41.48C176.359 41.48 177.319 41.3333 178.079 41.04C178.852 40.7467 179.432 40.32 179.819 39.76C180.205 39.2 180.399 38.5067 180.399 37.68C180.399 36.8667 180.205 36.1867 179.819 35.64C179.432 35.0933 178.852 34.68 178.079 34.4C177.319 34.12 176.359 33.98 175.199 33.98C175.172 33.98 175.119 33.98 175.039 33.98C174.959 33.98 174.912 33.98 174.899 33.98C173.765 33.98 172.819 34.1267 172.059 34.42C171.312 34.7 170.752 35.1133 170.379 35.66C170.005 36.2067 169.819 36.88 169.819 37.68C169.819 38.4933 170.005 39.18 170.379 39.74C170.765 40.3 171.332 40.7267 172.079 41.02C172.839 41.3133 173.779 41.4667 174.899 41.48C174.925 41.48 174.972 41.48 175.039 41.48C175.119 41.48 175.172 41.48 175.199 41.48ZM174.159 46.88V28.16H176.039V46.88H174.159ZM185.012 43V32.4H186.932V40.12L193.432 32.4H195.172V43H193.252V35.28L186.772 43H185.012ZM204.519 43.12C203.639 43.12 202.832 42.92 202.099 42.52C201.379 42.1067 200.799 41.5 200.359 40.7C199.932 39.9 199.719 38.9 199.719 37.7C199.719 36.5 199.926 35.5 200.339 34.7C200.766 33.9 201.339 33.3 202.059 32.9C202.792 32.5 203.612 32.3 204.519 32.3C205.559 32.3 206.479 32.5267 207.279 32.98C208.079 33.4333 208.712 34.0667 209.179 34.88C209.646 35.68 209.879 36.62 209.879 37.7C209.879 38.78 209.646 39.7267 209.179 40.54C208.712 41.3533 208.079 41.9867 207.279 42.44C206.479 42.8933 205.559 43.12 204.519 43.12ZM198.899 46.88V32.4H200.739V35.26L200.619 37.72L200.819 40.18V46.88H198.899ZM204.359 41.44C205.039 41.44 205.646 41.2867 206.179 40.98C206.726 40.6733 207.152 40.24 207.459 39.68C207.779 39.1067 207.939 38.4467 207.939 37.7C207.939 36.94 207.779 36.2867 207.459 35.74C207.152 35.18 206.726 34.7467 206.179 34.44C205.646 34.1333 205.039 33.98 204.359 33.98C203.692 33.98 203.086 34.1333 202.539 34.44C202.006 34.7467 201.579 35.18 201.259 35.74C200.952 36.2867 200.799 36.94 200.799 37.7C200.799 38.4467 200.952 39.1067 201.259 39.68C201.579 40.24 202.006 40.6733 202.539 40.98C203.086 41.2867 203.692 41.44 204.359 41.44ZM212.669 43V32.4H214.649L219.209 40.24H218.409L223.089 32.4H224.889V43H223.149V34.56L223.469 34.74L219.189 41.8H218.349L214.049 34.6L214.429 34.52V43H212.669Z" fill="#6D98A7"/>
</svg>
