<svg width="133" height="27" viewBox="0 0 133 27" fill="none" xmlns="http://www.w3.org/2000/svg">
<path d="M20.88 21.28L20.4 21.4" stroke="#2A4852"/>
<path d="M18.0401 16.68H18.5601H18.9601V16.68C19.0682 16.68 19.1369 16.5643 19.0852 16.4693L18.9762 16.2697C18.9655 16.25 18.9572 16.2291 18.9515 16.2074L18.7601 15.48L18.5601 14.6L18.4001 13.56L18.2712 12.7542C18.2505 12.625 18.2401 12.4943 18.2401 12.3634V12.3634C18.2401 12.0702 18.1879 11.7792 18.0861 11.5043L17.8401 10.84" stroke="#2A4852"/>
<path d="M20.84 21.2764H21.6974H22.3507H23.249H23.8614V21.2764C24.0704 21.2764 24.2705 21.3603 24.417 21.5094L24.4751 21.5685C24.5553 21.6502 24.6493 21.7171 24.7527 21.7662L25.2088 21.9829L25.5067 22.1008C25.7974 22.2158 26.0986 22.3024 26.406 22.3593V22.3593C26.6961 22.413 26.9905 22.44 27.2855 22.44H27.822H29.0877H29.3755C29.7003 22.44 30.0244 22.4127 30.3446 22.3584V22.3584C30.6765 22.3021 31.0029 22.217 31.32 22.104L31.66 21.9829L31.7794 21.9403C32.2424 21.7754 32.6824 21.5523 33.0891 21.2764V21.2764L33.4398 20.964C33.638 20.7875 33.7859 20.5617 33.8685 20.3095V20.3095C33.9202 20.1517 33.9976 20.0036 34.0977 19.8711L34.2295 19.6968C34.313 19.5863 34.3859 19.4684 34.4634 19.3537C34.5414 19.2381 34.6395 19.1159 34.7223 19.0738C34.7351 19.0673 34.7511 19.0578 34.7697 19.0459C35.313 18.6981 35.8417 18.3243 36.4372 18.0764V18.0764L37.4988 17.6608L38.1929 17.4114L38.2145 17.4025C38.9336 17.1043 39.6779 16.8708 40.4386 16.7049V16.7049L41.7452 16.414L42.3576 16.2478L43.0094 16.0898C43.146 16.0567 43.2861 16.04 43.4266 16.04H43.6617C43.7442 16.04 43.8258 16.0566 43.9018 16.0888L44.1669 16.2013C44.2335 16.2295 44.2766 16.2947 44.2766 16.367V16.367C44.2766 16.3978 44.2846 16.4282 44.2997 16.4551L44.371 16.582C44.4162 16.6626 44.44 16.7547 44.44 16.8472V16.8472C44.44 17.0174 44.3585 17.1798 44.2208 17.2799V17.2799C44.1766 17.312 44.1377 17.3507 44.1053 17.3946L43.7867 17.827L43.5588 18.0848C43.466 18.1897 43.3853 18.3046 43.3183 18.4275V18.4275C43.2497 18.5532 43.1669 18.6705 43.0716 18.7773L42.9805 18.8792C42.8649 19.0087 42.7605 19.1478 42.6685 19.2949L42.5209 19.5309L42.3576 19.8634L42.1943 20.279" stroke="#2A4852"/>
<path d="M20.84 21.56V21.56C20.84 21.4937 20.7862 21.44 20.72 21.44H19.5474H18.1297H16.7954H15.3777L13.96 21.32" stroke="#2A4852"/>
<path d="M14 21.36L11.56 21.2L9.72 21.04H9.27464C8.88115 21.04 8.49058 20.9724 8.12 20.84V20.84L7.12 20.44L6.04 19.92L5.04 19.48L3.96 18.84L3.04 18.28L2.2 17.76L1.64 17.36L1.32 17.08L1.11314 16.8731C1.07139 16.8314 1.10096 16.76 1.16 16.76V16.76H1.84H17.8498C18.0391 16.76 18.1561 16.5534 18.0587 16.3911V16.3911C18.0463 16.3705 18.037 16.3482 18.0312 16.3248L17.92 15.88V15.88C17.8403 15.5612 17.8 15.2338 17.8 14.9052V14.76V14.4856C17.8 14.269 17.7799 14.0529 17.74 13.84V13.84C17.7001 13.6271 17.68 13.411 17.68 13.1944V12.9053C17.68 12.6755 17.7001 12.4462 17.74 12.22L17.7547 12.1368C17.7848 11.9659 17.8 11.7927 17.8 11.6192V11.6192C17.8 11.3938 17.8256 11.1691 17.8763 10.9495L17.92 10.76L18.04 10.36L18.28 9.76L18.4528 9.38963C18.5239 9.23732 18.573 9.07567 18.5985 8.90955L18.603 8.88028C18.6275 8.72103 18.6275 8.55897 18.603 8.39973L18.5978 8.3654C18.5728 8.20309 18.5192 8.04651 18.4394 7.90296V7.90296C18.3867 7.80798 18.3229 7.71954 18.2495 7.63945L17.92 7.28L17.32 6.72L17.2938 6.69119C17.0453 6.41782 16.8262 6.11912 16.64 5.8V5.8L16.36 5.24L16.2536 4.99162C16.1647 4.78432 16.0954 4.5692 16.0465 4.34905V4.34905C15.989 4.09046 15.96 3.82636 15.96 3.56147V3.24V3.1278C15.96 2.77822 16.0164 2.43093 16.1269 2.09928V2.09928C16.1756 1.95328 16.2345 1.81091 16.3034 1.67326L16.36 1.56L16.5415 1.23332C16.5538 1.21114 16.568 1.19005 16.5838 1.17024L16.6794 1.0507C16.7051 1.01865 16.7439 1 16.7849 1V1C16.8595 1 16.92 1.06048 16.92 1.13508V1.28V1.37922C16.92 1.57534 16.9781 1.76708 17.0868 1.93027V1.93027C17.1354 2.0031 17.1934 2.0692 17.2593 2.12684L17.8 2.6L17.8123 2.61111C18.0703 2.8433 18.3472 3.05366 18.64 3.24V3.24L19.16 3.56L19.6 3.84V3.84C19.8131 3.9998 20.0238 4.16673 20.1922 4.37302C20.2151 4.40109 20.2323 4.42457 20.24 4.44C20.2644 4.48887 20.4148 4.63412 20.538 4.74756C20.6024 4.80692 20.64 4.89013 20.64 4.97775V4.97775C20.64 5.04412 20.6615 5.1087 20.7014 5.1618L20.7495 5.22598C20.7565 5.23531 20.7626 5.24525 20.7678 5.25568V5.25568C20.8097 5.33936 20.9052 5.38138 20.9952 5.35567L21.3191 5.2631C21.3728 5.24778 21.4283 5.24 21.4841 5.24H21.8H21.9846C22.1269 5.24 22.2679 5.26715 22.4 5.32V5.32C22.5321 5.37285 22.6736 5.39588 22.8149 5.41266C22.9117 5.42415 23.0048 5.44483 23.04 5.48C23.12 5.56 23.24 5.48 23.36 5.64C23.456 5.768 23.72 5.8 23.84 5.8C23.8933 5.8 24.048 5.8 24.24 5.8C24.2579 5.8 24.2766 5.8 24.2959 5.8C24.6566 5.8 25.0153 5.74607 25.36 5.64V5.64L25.5373 5.56122C25.6589 5.50717 25.7757 5.44289 25.8864 5.36908L25.8917 5.36552C26.0169 5.28204 26.1336 5.18641 26.24 5.08V5.08L26.3499 4.99212C26.4082 4.94544 26.4807 4.92 26.5555 4.92H26.6246C26.6846 4.92 26.7412 4.94829 26.7773 4.99635V4.99635C26.8164 5.04847 26.8262 5.11691 26.8033 5.1779L26.7499 5.32042C26.7301 5.37304 26.72 5.42879 26.72 5.485V5.50427C26.72 5.59353 26.6992 5.68157 26.6593 5.76141L26.64 5.8L26.44 6.2L26.24 6.6L26.1994 6.68114C26.1206 6.83879 26.0111 6.97909 25.8772 7.0938V7.0938C25.8258 7.13787 25.7779 7.18582 25.7338 7.23724L25.692 7.28602C25.6042 7.38845 25.5004 7.4767 25.4138 7.58013C25.3826 7.61741 25.36 7.65367 25.36 7.68C25.36 7.71478 25.2577 7.77475 25.1364 7.83296C24.9428 7.92586 24.7464 8.01349 24.56 8.12V8.12L24.2844 8.28538C24.203 8.33421 24.1099 8.36 24.015 8.36V8.36C23.9522 8.36 23.8899 8.37132 23.8311 8.39318C23.7135 8.43683 23.5544 8.49522 23.48 8.52C23.36 8.56 23.12 8.64 22.96 8.64C22.8 8.64 22.6 8.64 22.44 8.64C22.28 8.64 22.12 8.76 21.96 8.76C21.8 8.76 21.6 8.76 21.4 8.76C21.2 8.76 21.08 8.76 20.96 8.76V8.76C20.7642 8.76 20.6999 9.04739 20.664 9.23986C20.646 9.33658 20.64 9.42664 20.64 9.48V9.64V9.64C20.64 9.93117 20.6901 10.2202 20.788 10.4944L20.84 10.64L21.16 11.28L21.52 11.88L21.96 12.44L22.0833 12.6096C22.2139 12.7892 22.3663 12.9519 22.5369 13.0941L22.6084 13.1536C22.7092 13.2376 22.8006 13.3322 22.8812 13.4358V13.4358C22.9865 13.5713 23.1104 13.6912 23.2492 13.7921L23.2806 13.815C23.4131 13.9113 23.5339 14.0228 23.6405 14.1472L23.72 14.24L23.84 14.36" stroke="#2A4852"/>
<path d="M44.5199 16.68L44.7257 16.0627C44.8007 15.8378 44.8184 15.5978 44.7772 15.3643L44.7732 15.342C44.7382 15.1433 44.6583 14.9552 44.5396 14.792V14.792C44.4472 14.665 44.3331 14.5554 44.2024 14.4683L44.1771 14.4515C43.9312 14.2875 43.6422 14.2 43.3466 14.2H42.6399L41.2799 14.36L39.8799 14.6L38.4799 15.04L36.6799 15.52L35.4399 15.84L33.3199 16.28L31.9199 16.44H30.3599H28.7999L28.0968 16.3619C27.607 16.3075 27.1247 16.1997 26.6583 16.0404L26.1442 15.8649C25.8629 15.7688 25.597 15.6322 25.3551 15.4594V15.4594C25.2252 15.3666 25.0882 15.2841 24.9454 15.2127L24.9397 15.2099C24.714 15.097 24.5028 14.9574 24.3105 14.794L23.7999 14.36" stroke="#2A4852"/>
<path d="M44.5601 16.68H45.3601H46.1601H47.0401H47.7201H48.6801H49.5201H50.3201H51.2001H52.0801H53.0001H53.7201V16.68C53.834 16.68 53.8981 16.8111 53.8282 16.901L53.7317 17.025C53.724 17.035 53.7153 17.0442 53.706 17.0527L53.3201 17.4V17.4C53.1075 17.6125 52.8697 17.7982 52.612 17.9528L52.4001 18.08L51.8401 18.4L51.2001 18.8L50.6401 19.16L50.0401 19.48L49.5201 19.72L49.0001 19.88V19.88C48.6821 19.986 48.3492 20.04 48.0141 20.04H47.7201L46.9601 20.12L46.0801 20.24H45.1601H44.0801H43.2401H42.4401V20.24C42.168 20.24 41.9167 20.3858 41.7818 20.622L41.6801 20.8L41.3601 21.32L40.9601 21.84L40.8867 21.9256C40.6161 22.2413 40.3195 22.5338 40.0001 22.8V22.8L39.5201 23.2L38.9601 23.6L38.3201 24L37.6401 24.4L36.9201 24.76L36.3201 25L35.5201 25.24L34.7601 25.48L34.1201 25.68L33.4401 25.84V25.84C32.9348 25.9464 32.4198 26 31.9034 26H31.8801H31.1601H30.2801H29.5201H28.7601H28.5797C28.1416 26 27.7051 25.9463 27.2801 25.84V25.84L26.6401 25.68L25.9201 25.48V25.48C25.4151 25.3205 24.9307 25.1024 24.4766 24.8299L24.3601 24.76L24.27 24.7059C23.9308 24.5025 23.6127 24.266 23.32 24V24L22.76 23.6L22.28 23.2L21.8 22.8L21.7213 22.7284C21.4812 22.5102 21.2661 22.2658 21.08 22V22L20.8 21.6" stroke="#2A4852"/>
<path d="M71.613 22V15.734L71.847 15.981H69.026V15.175H75.123V15.981H72.302L72.536 15.734V22H71.613ZM76.5745 24.587C76.2539 24.587 75.9462 24.535 75.6515 24.431C75.3655 24.327 75.1185 24.171 74.9105 23.963L75.3395 23.274C75.5129 23.4387 75.6992 23.5643 75.8985 23.651C76.1065 23.7463 76.3362 23.794 76.5875 23.794C76.8909 23.794 77.1509 23.7073 77.3675 23.534C77.5929 23.3693 77.8052 23.0747 78.0045 22.65L78.4465 21.649L78.5505 21.506L81.3585 15.175H82.2685L78.8495 22.819C78.6589 23.261 78.4465 23.612 78.2125 23.872C77.9872 24.132 77.7402 24.314 77.4715 24.418C77.2029 24.5307 76.9039 24.587 76.5745 24.587ZM78.3945 22.195L75.2485 15.175H76.2105L78.9925 21.441L78.3945 22.195ZM87.2296 22.065C86.6402 22.065 86.1072 21.9307 85.6306 21.662C85.1539 21.3847 84.7726 20.9903 84.4866 20.479C84.2092 19.959 84.0706 19.3263 84.0706 18.581C84.0706 17.8357 84.2092 17.2073 84.4866 16.696C84.7639 16.176 85.1409 15.7817 85.6176 15.513C86.0942 15.2443 86.6316 15.11 87.2296 15.11C87.8796 15.11 88.4602 15.2573 88.9716 15.552C89.4916 15.838 89.8989 16.2453 90.1936 16.774C90.4882 17.294 90.6356 17.8963 90.6356 18.581C90.6356 19.2743 90.4882 19.881 90.1936 20.401C89.8989 20.921 89.4916 21.3283 88.9716 21.623C88.4602 21.9177 87.8796 22.065 87.2296 22.065ZM83.7066 24.522V15.175H84.5906V17.229L84.4996 18.594L84.6296 19.972V24.522H83.7066ZM87.1646 21.246C87.6499 21.246 88.0832 21.1377 88.4646 20.921C88.8459 20.6957 89.1492 20.3837 89.3746 19.985C89.5999 19.5777 89.7126 19.1097 89.7126 18.581C89.7126 18.0523 89.5999 17.5887 89.3746 17.19C89.1492 16.7913 88.8459 16.4793 88.4646 16.254C88.0832 16.0287 87.6499 15.916 87.1646 15.916C86.6792 15.916 86.2416 16.0287 85.8516 16.254C85.4702 16.4793 85.1669 16.7913 84.9416 17.19C84.7249 17.5887 84.6166 18.0523 84.6166 18.581C84.6166 19.1097 84.7249 19.5777 84.9416 19.985C85.1669 20.3837 85.4702 20.6957 85.8516 20.921C86.2416 21.1377 86.6792 21.246 87.1646 21.246ZM96.4537 22.078C96.4537 22.078 96.4363 22.078 96.4017 22.078C96.367 22.078 96.3323 22.078 96.2977 22.078C96.2717 22.078 96.25 22.078 96.2327 22.078C94.8807 22.0693 93.8277 21.7617 93.0737 21.155C92.3197 20.5483 91.9427 19.686 91.9427 18.568C91.9427 17.4673 92.3197 16.618 93.0737 16.02C93.8363 15.4133 94.9067 15.1057 96.2847 15.097C96.2933 15.097 96.3107 15.097 96.3367 15.097C96.3713 15.097 96.4017 15.097 96.4277 15.097C96.4537 15.097 96.471 15.097 96.4797 15.097C97.8663 15.1057 98.9453 15.4133 99.7167 16.02C100.488 16.618 100.874 17.4673 100.874 18.568C100.874 19.6947 100.484 20.5613 99.7037 21.168C98.9323 21.7747 97.849 22.078 96.4537 22.078ZM96.4407 21.272C97.212 21.272 97.8577 21.168 98.3777 20.96C98.8977 20.7433 99.292 20.4357 99.5607 20.037C99.8293 19.6383 99.9637 19.1487 99.9637 18.568C99.9637 18.0047 99.8293 17.528 99.5607 17.138C99.292 16.7393 98.8977 16.436 98.3777 16.228C97.8577 16.02 97.212 15.916 96.4407 15.916C96.432 15.916 96.406 15.916 96.3627 15.916C96.328 15.916 96.3063 15.916 96.2977 15.916C95.5437 15.916 94.911 16.0243 94.3997 16.241C93.8883 16.449 93.5027 16.748 93.2427 17.138C92.9827 17.528 92.8527 18.0047 92.8527 18.568C92.8527 19.14 92.9827 19.6253 93.2427 20.024C93.5113 20.4227 93.9013 20.7303 94.4127 20.947C94.924 21.155 95.5523 21.2633 96.2977 21.272C96.315 21.272 96.341 21.272 96.3757 21.272C96.4103 21.272 96.432 21.272 96.4407 21.272ZM95.9467 24.522V12.354H96.8437V24.522H95.9467ZM102.826 22V15.175H103.749V20.596L108.312 15.175H109.131V22H108.208V16.566L103.658 22H102.826ZM115.299 22.065C114.71 22.065 114.177 21.9307 113.7 21.662C113.223 21.3847 112.842 20.9903 112.556 20.479C112.279 19.959 112.14 19.3263 112.14 18.581C112.14 17.8357 112.279 17.2073 112.556 16.696C112.833 16.176 113.21 15.7817 113.687 15.513C114.164 15.2443 114.701 15.11 115.299 15.11C115.949 15.11 116.53 15.2573 117.041 15.552C117.561 15.838 117.968 16.2453 118.263 16.774C118.558 17.294 118.705 17.8963 118.705 18.581C118.705 19.2743 118.558 19.881 118.263 20.401C117.968 20.921 117.561 21.3283 117.041 21.623C116.53 21.9177 115.949 22.065 115.299 22.065ZM111.776 24.522V15.175H112.66V17.229L112.569 18.594L112.699 19.972V24.522H111.776ZM115.234 21.246C115.719 21.246 116.153 21.1377 116.534 20.921C116.915 20.6957 117.219 20.3837 117.444 19.985C117.669 19.5777 117.782 19.1097 117.782 18.581C117.782 18.0523 117.669 17.5887 117.444 17.19C117.219 16.7913 116.915 16.4793 116.534 16.254C116.153 16.0287 115.719 15.916 115.234 15.916C114.749 15.916 114.311 16.0287 113.921 16.254C113.54 16.4793 113.236 16.7913 113.011 17.19C112.794 17.5887 112.686 18.0523 112.686 18.581C112.686 19.1097 112.794 19.5777 113.011 19.985C113.236 20.3837 113.54 20.6957 113.921 20.921C114.311 21.1377 114.749 21.246 115.234 21.246ZM120.688 22V15.175H121.624L124.718 20.414H124.328L127.474 15.175H128.332V22H127.487V16.228L127.656 16.306L124.718 21.168H124.302L121.338 16.254L121.533 16.215V22H120.688Z" fill="#2A4852"/>
</svg>
