<svg width="37" height="41" viewBox="0 0 37 41" fill="none" xmlns="http://www.w3.org/2000/svg">
<path d="M31.3923 4.97347C24.2109 -1.65782 12.5675 -1.65782 5.38608 4.97347C-1.79536 11.6069 -1.79536 22.3599 5.38608 28.9912L18.3881 41L31.3923 28.9912C38.5738 22.3599 38.5738 11.6069 31.3923 4.97347ZM18.3881 22.6577C16.8525 22.6577 15.4111 22.0966 14.3238 21.0781C12.0825 18.9741 12.0825 15.5516 14.3238 13.4476C15.4088 12.4291 16.8525 11.868 18.3881 11.868C19.9237 11.868 21.3673 12.4291 22.4523 13.4476C24.6937 15.5516 24.6937 18.9762 22.4523 21.0781C21.3673 22.0966 19.9237 22.6577 18.3881 22.6577Z" fill="#C2DBE3"/>
<ellipse cx="18.4957" cy="17.9093" rx="7.44072" ry="6.64561" fill="#C2DBE3"/>
<circle cx="18.3721" cy="17.8045" r="9.43426" fill="#F5F5F5"/>
</svg>
