<svg width="181" height="38" viewBox="0 0 181 38" fill="none" xmlns="http://www.w3.org/2000/svg">
<g clip-path="url(#clip0_27_78)">
<path d="M162.276 3.37181C167.279 3.37181 167.871 3.39375 169.839 3.48152C171.667 3.56197 172.655 3.86917 173.313 4.12516C174.183 4.46161 174.812 4.8712 175.463 5.52216C176.122 6.18043 176.524 6.80213 176.86 7.67251C177.116 8.33078 177.423 9.3255 177.504 11.1467C177.592 13.1215 177.614 13.714 177.614 18.7095C177.614 23.7124 177.592 24.3048 177.504 26.2723C177.423 28.1008 177.116 29.0882 176.86 29.7465C176.524 30.6169 176.114 31.2459 175.463 31.8969C174.805 32.5551 174.183 32.9574 173.313 33.2939C172.655 33.5499 171.66 33.857 169.839 33.9375C167.864 34.0253 167.271 34.0472 162.276 34.0472C157.273 34.0472 156.681 34.0253 154.713 33.9375C152.885 33.857 151.897 33.5499 151.239 33.2939C150.369 32.9574 149.74 32.5478 149.089 31.8969C148.43 31.2386 148.028 30.6169 147.692 29.7465C147.436 29.0882 147.128 28.0935 147.048 26.2723C146.96 24.2975 146.938 23.7051 146.938 18.7095C146.938 13.7067 146.96 13.1142 147.048 11.1467C147.128 9.31818 147.436 8.33078 147.692 7.67251C148.028 6.80213 148.438 6.17311 149.089 5.52216C149.747 4.86389 150.369 4.46161 151.239 4.12516C151.897 3.86917 152.892 3.56197 154.713 3.48152C156.681 3.39375 157.273 3.37181 162.276 3.37181ZM162.276 0C157.193 0 156.556 0.0219423 154.56 0.109712C152.57 0.197481 151.202 0.519302 150.017 0.980092C148.781 1.46282 147.735 2.09915 146.697 3.14507C145.651 4.18367 145.015 5.22959 144.532 6.45837C144.071 7.65057 143.749 9.01099 143.661 11.0004C143.574 13.0045 143.552 13.6408 143.552 18.7241C143.552 23.8074 143.574 24.4438 143.661 26.4405C143.749 28.43 144.071 29.7977 144.532 30.9826C145.015 32.2187 145.651 33.2646 146.697 34.3032C147.735 35.3418 148.781 35.9855 150.01 36.4609C151.202 36.9217 152.563 37.2435 154.552 37.3312C156.549 37.419 157.185 37.441 162.269 37.441C167.352 37.441 167.988 37.419 169.985 37.3312C171.974 37.2435 173.342 36.9217 174.527 36.4609C175.756 35.9855 176.802 35.3418 177.84 34.3032C178.879 33.2646 179.523 32.2187 179.998 30.9899C180.459 29.7977 180.781 28.4373 180.868 26.4478C180.956 24.4511 180.978 23.8148 180.978 18.7315C180.978 13.6481 180.956 13.0118 180.868 11.0151C180.781 9.02562 180.459 7.65788 179.998 6.47299C179.537 5.22959 178.901 4.18367 177.855 3.14507C176.816 2.10647 175.77 1.46282 174.542 0.987406C173.349 0.526616 171.989 0.204795 170 0.117026C167.996 0.0219424 167.359 0 162.276 0Z" fill="#6D98A7"/>
<path d="M162.276 9.10596C156.966 9.10596 152.658 13.414 152.658 18.724C152.658 24.0341 156.966 28.3421 162.276 28.3421C167.586 28.3421 171.894 24.0341 171.894 18.724C171.894 13.414 167.586 9.10596 162.276 9.10596ZM162.276 24.963C158.831 24.963 156.037 22.169 156.037 18.724C156.037 15.2791 158.831 12.4851 162.276 12.4851C165.721 12.4851 168.515 15.2791 168.515 18.724C168.515 22.169 165.721 24.963 162.276 24.963Z" fill="#6D98A7"/>
<path d="M174.52 8.72566C174.52 9.96906 173.51 10.9711 172.274 10.9711C171.031 10.9711 170.029 9.96175 170.029 8.72566C170.029 7.48226 171.038 6.48022 172.274 6.48022C173.51 6.48022 174.52 7.48957 174.52 8.72566Z" fill="#6D98A7"/>
</g>
<g clip-path="url(#clip1_27_78)">
<path fill-rule="evenodd" clip-rule="evenodd" d="M109.448 18.7241C109.448 29.0652 101.065 37.4483 90.7241 37.4483C80.3831 37.4483 72 29.0652 72 18.7241C72 8.38308 80.3831 0 90.7241 0C101.065 0 109.448 8.38308 109.448 18.7241ZM91.3951 13.823C89.5739 14.5805 85.9341 16.1483 80.4756 18.5265C79.5893 18.879 79.1249 19.2238 79.0827 19.561C79.0112 20.1308 79.7248 20.3552 80.6965 20.6607C80.8287 20.7023 80.9657 20.7453 81.1061 20.791C82.0621 21.1017 83.3481 21.4653 84.0167 21.4798C84.6231 21.4929 85.3 21.2428 86.0472 20.7297C91.1472 17.2871 93.7799 15.547 93.9452 15.5095C94.0618 15.483 94.2234 15.4497 94.3329 15.547C94.4423 15.6443 94.4316 15.8286 94.42 15.8781C94.3493 16.1794 91.5482 18.7836 90.0986 20.1312C89.6467 20.5513 89.3262 20.8494 89.2607 20.9174C89.1139 21.0699 88.9643 21.2141 88.8205 21.3527C87.9323 22.2089 87.2663 22.851 88.8574 23.8995C89.622 24.4033 90.2338 24.82 90.8442 25.2357C91.5108 25.6896 92.1757 26.1424 93.036 26.7063C93.2551 26.85 93.4645 26.9992 93.6683 27.1446C94.4441 27.6976 95.1411 28.1945 96.0021 28.1153C96.5025 28.0692 97.0193 27.5988 97.2818 26.1956C97.9021 22.8796 99.1213 15.6947 99.4031 12.7339C99.4278 12.4745 99.3968 12.1426 99.3718 11.9968C99.3469 11.8511 99.2948 11.6435 99.1053 11.4898C98.881 11.3077 98.5347 11.2693 98.3798 11.2721C97.6755 11.2845 96.595 11.6602 91.3951 13.823Z" fill="#6D98A7"/>
</g>
<g clip-path="url(#clip2_27_78)">
<path fill-rule="evenodd" clip-rule="evenodd" d="M2.6324 2.6324C0 5.26481 0 9.50156 0 17.9752V19.4731C0 27.9467 0 32.1834 2.6324 34.8159C5.26481 37.4483 9.50156 37.4483 17.9752 37.4483H19.4731C27.9467 37.4483 32.1834 37.4483 34.8159 34.8159C37.4483 32.1834 37.4483 27.9467 37.4483 19.4731V17.9752C37.4483 9.50156 37.4483 5.26481 34.8159 2.6324C32.1834 0 27.9467 0 19.4731 0H17.9752C9.50156 0 5.26481 0 2.6324 2.6324ZM6.31949 11.3906C6.52233 21.1271 11.3906 26.9784 19.9257 26.9784H20.4095V21.408C23.5458 21.7201 25.9173 24.0138 26.8691 26.9784H31.3006C30.0835 22.5471 26.8847 20.0973 24.8874 19.1611C26.8847 18.0065 29.6933 15.1978 30.3642 11.3906H26.3385C25.4647 14.4801 22.8748 17.2887 20.4095 17.554V11.3906H16.3836V22.1882C13.8871 21.564 10.7353 18.537 10.5948 11.3906H6.31949Z" fill="#6D98A7"/>
</g>
<defs>
<clipPath id="clip0_27_78">
<rect width="37.4483" height="37.4483" fill="white" transform="translate(143.552)"/>
</clipPath>
<clipPath id="clip1_27_78">
<rect width="37.4483" height="37.4483" fill="white" transform="translate(72)"/>
</clipPath>
<clipPath id="clip2_27_78">
<rect width="37.4483" height="37.4483" fill="white"/>
</clipPath>
</defs>
</svg>
