<svg width="93" height="45" viewBox="0 0 93 45" fill="none" xmlns="http://www.w3.org/2000/svg">
<path d="M35.1936 35.8816L34.368 36.088" stroke="#2A4852" stroke-width="2"/>
<path d="M30.3088 27.9696H31.2032H31.8912V27.9696C32.0772 27.9696 32.1954 27.7705 32.1063 27.6072L31.919 27.2638C31.9005 27.2299 31.8863 27.194 31.8764 27.1567L31.5472 25.9056L31.2032 24.392L30.928 22.6032L30.7062 21.2172C30.6707 20.9949 30.6528 20.7701 30.6528 20.545V20.545C30.6528 20.0406 30.5631 19.5403 30.388 19.0673L29.9648 17.9248" stroke="#2A4852" stroke-width="2"/>
<path d="M35.1248 35.8753H36.5996H37.7233H39.2683H40.3217V35.8753C40.6811 35.8753 41.0254 36.0198 41.2773 36.2761L41.3772 36.3778C41.5152 36.5183 41.6768 36.6334 41.8547 36.7179L42.6392 37.0905L43.1516 37.2933C43.6516 37.4912 44.1696 37.6402 44.6984 37.738V37.738C45.1973 37.8303 45.7037 37.8768 46.2111 37.8768H47.1339H49.3109H49.8059C50.3645 37.8768 50.9221 37.8298 51.4728 37.7364V37.7364C52.0437 37.6396 52.605 37.4932 53.1505 37.2989L53.7353 37.0905L53.9407 37.0174C54.7369 36.7337 55.4939 36.35 56.1933 35.8753V35.8753L56.7965 35.3381C57.1374 35.0345 57.3918 34.6461 57.5339 34.2123V34.2123C57.6227 33.9409 57.756 33.6861 57.9282 33.4583L58.1548 33.1584C58.2983 32.9685 58.4238 32.7657 58.5571 32.5684C58.6913 32.3696 58.8601 32.1593 59.0024 32.0869C59.0244 32.0757 59.0519 32.0595 59.0839 32.0389C60.0184 31.4407 60.9277 30.7979 61.952 30.3714V30.3714L63.778 29.6565L64.9719 29.2277L65.0089 29.2123C66.2458 28.6994 67.5261 28.2978 68.8344 28.0125V28.0125L71.0817 27.5121L72.1352 27.2262L73.2563 26.9545C73.4912 26.8976 73.7321 26.8688 73.9738 26.8688H74.3781C74.52 26.8688 74.6605 26.8974 74.7911 26.9528L75.2472 27.1462C75.3616 27.1947 75.4359 27.3069 75.4359 27.4312V27.4312C75.4359 27.4843 75.4495 27.5364 75.4755 27.5827L75.5981 27.801C75.6759 27.9397 75.7168 28.0981 75.7168 28.2571V28.2571C75.7168 28.55 75.5766 28.8292 75.3398 29.0014V29.0014C75.2638 29.0566 75.1969 29.1232 75.1412 29.1987L74.5931 29.9425L74.2011 30.3858C74.0416 30.5662 73.9028 30.764 73.7875 30.9754V30.9754C73.6695 31.1915 73.5271 31.3933 73.3631 31.5769L73.2065 31.7523C73.0076 31.9749 72.8281 32.2141 72.6698 32.4673L72.4161 32.8732L72.1352 33.445L71.8542 34.1598" stroke="#2A4852" stroke-width="2"/>
<path d="M35.1248 36.3632V36.3632C35.1248 36.2492 35.0324 36.1568 34.9184 36.1568H32.9015H30.4631H28.1681H25.7296L23.2912 35.9504" stroke="#2A4852" stroke-width="2"/>
<path d="M23.36 36.0192L19.1632 35.744L15.9984 35.4688H15.2324C14.5556 35.4688 13.8838 35.3524 13.2464 35.1248V35.1248L11.5264 34.4368L9.6688 33.5424L7.9488 32.7856L6.0912 31.6848L4.5088 30.7216L3.064 29.8272L2.1008 29.1392L1.5504 28.6576L1.1946 28.3018C1.12279 28.23 1.17364 28.1072 1.2752 28.1072V28.1072H2.4448H29.9816C30.3073 28.1072 30.5084 27.7519 30.3409 27.4727V27.4727C30.3196 27.4372 30.3037 27.3988 30.2937 27.3587L30.1024 26.5936V26.5936C29.9653 26.0453 29.896 25.4822 29.896 24.917V24.6672V24.1952C29.896 23.8227 29.8614 23.4509 29.7928 23.0848V23.0848C29.7241 22.7187 29.6896 22.3469 29.6896 21.9744V21.477C29.6896 21.0819 29.7241 20.6875 29.7928 20.2984L29.818 20.1553C29.8699 19.8614 29.896 19.5635 29.896 19.265V19.265C29.896 18.8773 29.94 18.4909 30.0272 18.1131L30.1024 17.7872L30.3088 17.0992L30.7216 16.0672L31.0189 15.4302C31.1411 15.1682 31.2255 14.8902 31.2695 14.6044L31.2772 14.5541C31.3194 14.2802 31.3194 14.0014 31.2772 13.7275L31.2681 13.6685C31.2252 13.3893 31.133 13.12 30.9958 12.8731V12.8731C30.905 12.7097 30.7954 12.5576 30.6691 12.4199L30.1024 11.8016L29.0704 10.8384L29.0253 10.7888C28.5979 10.3186 28.221 9.80488 27.9008 9.256V9.256L27.4192 8.2928L27.2361 7.86558C27.0833 7.50904 26.964 7.13903 26.8799 6.76036V6.76036C26.7811 6.31559 26.7312 5.86134 26.7312 5.40572V4.8528V4.65982C26.7312 4.05854 26.8281 3.46119 27.0183 2.89077V2.89077C27.102 2.63964 27.2034 2.39477 27.3218 2.158L27.4192 1.9632L27.7314 1.4013C27.7525 1.36317 27.7769 1.32688 27.8041 1.29281L27.9686 1.0872C28.0127 1.03208 28.0795 1 28.1501 1V1C28.2784 1 28.3824 1.10402 28.3824 1.23233V1.4816V1.65225C28.3824 1.98959 28.4823 2.31938 28.6694 2.60006V2.60006C28.7529 2.72534 28.8526 2.83903 28.9659 2.93817L29.896 3.752L29.9172 3.77111C30.361 4.17048 30.8371 4.53229 31.3408 4.8528V4.8528L32.2352 5.4032L32.992 5.8848V5.8848C33.3585 6.15965 33.7209 6.44678 34.0106 6.8016C34.05 6.84987 34.0795 6.89027 34.0928 6.9168C34.1348 7.00085 34.3934 7.25068 34.6053 7.4458C34.7161 7.5479 34.7808 7.69103 34.7808 7.84173V7.84173C34.7808 7.95589 34.8178 8.06697 34.8863 8.1583L34.9691 8.26868C34.9811 8.28473 34.9917 8.30183 35.0007 8.31977V8.31977C35.0726 8.4637 35.2369 8.53596 35.3916 8.49176L35.9489 8.33254C36.0412 8.30617 36.1367 8.2928 36.2326 8.2928H36.776H37.0935C37.3382 8.2928 37.5808 8.3395 37.808 8.4304V8.4304C38.0352 8.5213 38.2786 8.5609 38.5217 8.58977C38.688 8.60953 38.8483 8.6451 38.9088 8.7056C39.0464 8.8432 39.2528 8.7056 39.4592 8.9808C39.6243 9.20096 40.0784 9.256 40.2848 9.256C40.3765 9.256 40.6426 9.256 40.9728 9.256C41.0036 9.256 41.0357 9.256 41.069 9.256C41.6894 9.256 42.3063 9.16324 42.8992 8.9808V8.9808L43.2041 8.84529C43.4133 8.75233 43.6141 8.64177 43.8046 8.51481L43.8138 8.50868C44.0291 8.36511 44.2298 8.20062 44.4128 8.0176V8.0176L44.6017 7.86644C44.7021 7.78615 44.8268 7.7424 44.9554 7.7424H45.0742C45.1776 7.7424 45.2749 7.79105 45.3369 7.87373V7.87373C45.4041 7.96336 45.421 8.08109 45.3816 8.18599L45.2897 8.43111C45.2558 8.52163 45.2384 8.61752 45.2384 8.7142V8.74734C45.2384 8.90087 45.2027 9.05229 45.134 9.18962L45.1008 9.256L44.7568 9.944L44.4128 10.632L44.343 10.7716C44.2074 11.0427 44.019 11.284 43.7888 11.4813V11.4813C43.7004 11.5571 43.6179 11.6396 43.5421 11.728L43.4702 11.812C43.3192 11.9881 43.1406 12.1399 42.9917 12.3178C42.938 12.3819 42.8992 12.4443 42.8992 12.4896C42.8992 12.5494 42.7232 12.6526 42.5146 12.7527C42.1817 12.9125 41.8438 13.0632 41.5232 13.2464V13.2464L41.0491 13.5308C40.9091 13.6148 40.749 13.6592 40.5857 13.6592V13.6592C40.4777 13.6592 40.3707 13.6787 40.2694 13.7163C40.0672 13.7913 39.7935 13.8918 39.6656 13.9344C39.4592 14.0032 39.0464 14.1408 38.7712 14.1408C38.496 14.1408 38.152 14.1408 37.8768 14.1408C37.6016 14.1408 37.3264 14.3472 37.0512 14.3472C36.776 14.3472 36.432 14.3472 36.088 14.3472C35.744 14.3472 35.5376 14.3472 35.3312 14.3472V14.3472C34.9944 14.3472 34.8838 14.8415 34.8221 15.1726C34.7911 15.3389 34.7808 15.4938 34.7808 15.5856V15.8608V15.8608C34.7808 16.3616 34.8669 16.8587 35.0353 17.3303L35.1248 17.5808L35.6752 18.6816L36.2944 19.7136L37.0512 20.6768L37.2633 20.9684C37.488 21.2774 37.75 21.5573 38.0434 21.8018L38.1664 21.9042C38.3397 22.0487 38.4971 22.2115 38.6357 22.3896V22.3896C38.8168 22.6226 39.0299 22.8289 39.2686 23.0025L39.3226 23.0417C39.5505 23.2075 39.7582 23.3993 39.9416 23.6132L40.0784 23.7728L40.2848 23.9792" stroke="#2A4852" stroke-width="2"/>
<path d="M75.8544 27.9696L76.2083 26.9078C76.3373 26.521 76.3677 26.1081 76.2968 25.7066L76.2901 25.6682C76.2297 25.3264 76.0923 25.0029 75.8882 24.7222V24.7222C75.7293 24.5038 75.533 24.3153 75.3082 24.1655L75.2647 24.1365C74.8417 23.8545 74.3447 23.704 73.8363 23.704H72.6208L70.2816 23.9792L67.8736 24.392L65.4656 25.1488L62.3696 25.9744L60.2368 26.5248L56.5904 27.2816L54.1824 27.5568H51.4992H48.816L47.6065 27.4224C46.7642 27.3288 45.9345 27.1434 45.1324 26.8695L44.2481 26.5676C43.7642 26.4023 43.307 26.1674 42.8909 25.8702V25.8702C42.6674 25.7106 42.4318 25.5687 42.1862 25.4459L42.1763 25.4409C41.7882 25.2469 41.4249 25.0067 41.0942 24.7257L40.216 23.9792" stroke="#2A4852" stroke-width="2"/>
<path d="M75.9232 27.9696H77.2992H78.6752H80.1888H81.3584H83.0096H84.4544H85.8304H87.344H88.8576H90.44H91.6784V27.9696C91.8744 27.9696 91.9846 28.195 91.8643 28.3498L91.6984 28.5631C91.6851 28.5802 91.6703 28.5961 91.6541 28.6106L90.9904 29.208V29.208C90.6248 29.5736 90.2158 29.8929 89.7725 30.1589L89.408 30.3776L88.4448 30.928L87.344 31.616L86.3808 32.2352L85.3488 32.7856L84.4544 33.1984L83.56 33.4736V33.4736C83.0132 33.6559 82.4405 33.7488 81.8641 33.7488H81.3584L80.0512 33.8864L78.5376 34.0928H76.9552H75.0976H73.6528H72.2768V34.0928C71.8088 34.0928 71.3767 34.3436 71.1445 34.7499L70.9696 35.056L70.4192 35.9504L69.7312 36.8448L69.605 36.992C69.1395 37.5351 68.6294 38.0381 68.08 38.496V38.496L67.2544 39.184L66.2912 39.872L65.1904 40.56L64.0208 41.248L62.7824 41.8672L61.7504 42.28L60.3744 42.6928L59.0672 43.1056L57.9664 43.4496L56.7968 43.7248V43.7248C55.9277 43.9078 55.0419 44 54.1537 44H54.1136H52.8752H51.3616H50.0544H48.7472H48.4371C47.6835 44 46.9327 43.9076 46.2016 43.7248V43.7248L45.1008 43.4496L43.8624 43.1056V43.1056C42.9939 42.8314 42.1607 42.4561 41.3797 41.9875L41.1792 41.8672L41.0242 41.7742C40.441 41.4243 39.8937 41.0176 39.3904 40.56V40.56L38.4272 39.872L37.6016 39.184L36.776 38.496L36.6406 38.3729C36.2276 37.9975 35.8577 37.5773 35.5376 37.12V37.12L35.056 36.432" stroke="#2A4852" stroke-width="2"/>
</svg>
