<svg width="36" height="36" viewBox="0 0 36 36" fill="none" xmlns="http://www.w3.org/2000/svg">
<path d="M11.1559 12.7866C13.3764 18.8443 15.6753 21.2612 21.5235 23.8356L18.989 27.395C12.2734 24.1799 8.92854 18.7602 7.3532 14.5308L11.1559 12.7866Z" fill="#6D98A7"/>
<path d="M13.0188 4.42355C14.2061 4.41891 15.109 5.40693 15.028 6.52571C14.9007 8.28628 15.0363 9.55651 15.4014 11.131C15.602 11.9959 15.1482 12.8743 14.4271 13.4401C13.4552 14.2027 12.7126 15.1744 12.1225 16.0108C11.3045 17.1702 8.48949 17.0869 7.86695 15.8239C6.58754 13.2281 5.72049 8.44587 7.58879 5.21489C7.88226 4.70738 8.47316 4.44133 9.08544 4.43893L13.0188 4.42355Z" fill="#6D98A7"/>
<path d="M31.0428 23.6322C31.1904 22.5195 30.2604 21.5542 29.0747 21.4956C27.2086 21.4033 25.8897 21.1234 24.2786 20.5917C23.3935 20.2996 22.4156 20.6194 21.7341 21.2274C20.8156 22.047 19.7049 22.6263 18.7547 23.079C17.4376 23.7065 17.1866 26.3557 18.4394 27.0913C21.0141 28.603 25.9369 29.991 29.5579 28.6279C30.1267 28.4138 30.4774 27.8918 30.5536 27.318L31.0428 23.6322Z" fill="#6D98A7"/>
</svg>
