<svg width="29" height="29" viewBox="0 0 29 29" fill="none" xmlns="http://www.w3.org/2000/svg">
<path d="M8.9847 10.2983C10.7731 15.177 12.6245 17.1235 17.3345 19.1968L15.2933 22.0635C9.88476 19.4741 7.19085 15.1093 5.92211 11.703L8.9847 10.2983Z" fill="#6D98A7"/>
<path d="M10.485 3.56265C11.4413 3.55891 12.1684 4.35463 12.1032 5.25567C12.0006 6.6736 12.1098 7.69661 12.4039 8.96468C12.5654 9.66123 12.2 10.3687 11.6192 10.8243C10.8364 11.4385 10.2384 12.2211 9.76311 12.8948C9.10433 13.8285 6.83719 13.7614 6.33581 12.7442C5.3054 10.6537 4.6071 6.80213 6.11179 4.19997C6.34814 3.79123 6.82404 3.57696 7.31716 3.57503L10.485 3.56265Z" fill="#6D98A7"/>
<path d="M25.0012 19.0328C25.1201 18.1367 24.3711 17.3593 23.4161 17.3121C21.9133 17.2377 20.8511 17.0123 19.5535 16.5841C18.8407 16.3489 18.0531 16.6064 17.5042 17.0961C16.7645 17.7562 15.87 18.2227 15.1046 18.5873C14.0439 19.0927 13.8417 21.2263 14.8507 21.8187C16.9244 23.0362 20.889 24.1541 23.8053 23.0563C24.2634 22.8838 24.5459 22.4634 24.6072 22.0013L25.0012 19.0328Z" fill="#6D98A7"/>
</svg>
