<svg width="194" height="27" viewBox="0 0 194 27" fill="none" xmlns="http://www.w3.org/2000/svg">
<path d="M15.6044 1.42211L18.6397 9.50407L18.7615 9.82827H19.1078H28.71L21.0069 14.6701L20.6615 14.8873L20.805 15.2693L23.7869 23.2092L15.8705 18.2332L15.6044 18.066L15.3383 18.2332L7.42185 23.2092L10.4038 15.2693L10.5473 14.8873L10.2019 14.6701L2.49876 9.82827H12.101H12.4473L12.5691 9.50406L15.6044 1.42211Z" fill="#6D98A7" stroke="#6D98A7"/>
<path d="M56.0783 1.42211L59.1136 9.50407L59.2354 9.82827H59.5817H69.1839L61.4809 14.6701L61.1354 14.8873L61.2789 15.2693L64.2609 23.2092L56.3444 18.2332L56.0783 18.066L55.8122 18.2332L47.8958 23.2092L50.8778 15.2693L51.0212 14.8873L50.6758 14.6701L42.9727 9.82827H52.5749H52.9212L53.043 9.50406L56.0783 1.42211Z" fill="#6D98A7" stroke="#6D98A7"/>
<path d="M96.5522 1.42211L99.5875 9.50407L99.7093 9.82827H100.056H109.658L101.955 14.6701L101.609 14.8873L101.753 15.2693L104.735 23.2092L96.8183 18.2332L96.5522 18.066L96.2861 18.2332L88.3697 23.2092L91.3517 15.2693L91.4951 14.8873L91.1497 14.6701L83.4466 9.82827H93.0488H93.3951L93.5169 9.50406L96.5522 1.42211Z" fill="#6D98A7" stroke="#6D98A7"/>
<path d="M137.026 1.42211L140.061 9.50407L140.183 9.82827H140.53H150.132L142.429 14.6701L142.083 14.8873L142.227 15.2693L145.209 23.2092L137.292 18.2332L137.026 18.066L136.76 18.2332L128.844 23.2092L131.826 15.2693L131.969 14.8873L131.624 14.6701L123.92 9.82827H133.523H133.869L133.991 9.50406L137.026 1.42211Z" fill="#6D98A7" stroke="#6D98A7"/>
<path d="M177.5 1.42211L180.535 9.50407L180.657 9.82827H181.003H190.606L182.903 14.6701L182.557 14.8873L182.701 15.2693L185.683 23.2092L177.766 18.2332L177.5 18.066L177.234 18.2332L169.317 23.2092L172.299 15.2693L172.443 14.8873L172.097 14.6701L164.394 9.82827H173.997H174.343L174.465 9.50406L177.5 1.42211Z" fill="#6D98A7" stroke="#6D98A7"/>
</svg>
