<svg width="153" height="30" viewBox="0 0 153 30" fill="none" xmlns="http://www.w3.org/2000/svg">
<path d="M15.5699 1.56456L18.5918 10.5245L18.7065 10.8647H19.0656H28.7915L20.9393 16.3609L20.6326 16.5756L20.7522 16.9303L23.7615 25.8529L15.8566 20.3199L15.5699 20.1192L15.2832 20.3199L7.37833 25.8529L10.3876 16.9303L10.5072 16.5756L10.2005 16.3609L2.34832 10.8647H12.0743H12.4333L12.548 10.5245L15.5699 1.56456Z" fill="#6D98A7" stroke="#6D98A7"/>
<path d="M55.9544 1.56456L58.9763 10.5245L59.091 10.8647H59.45H69.176L61.3238 16.3609L61.0171 16.5756L61.1367 16.9303L64.146 25.8529L56.2411 20.3199L55.9544 20.1192L55.6677 20.3199L47.7628 25.8529L50.7721 16.9303L50.8917 16.5756L50.585 16.3609L42.7328 10.8647H52.4587H52.8178L52.9325 10.5245L55.9544 1.56456Z" fill="#6D98A7" stroke="#6D98A7"/>
<path d="M96.3388 1.56456L99.3607 10.5245L99.4755 10.8647H99.8345H109.56L101.708 16.3609L101.402 16.5756L101.521 16.9303L104.53 25.8529L96.6256 20.3199L96.3388 20.1192L96.0521 20.3199L88.1472 25.8529L91.1565 16.9303L91.2762 16.5756L90.9695 16.3609L83.1172 10.8647H92.8432H93.2022L93.317 10.5245L96.3388 1.56456Z" fill="#6D98A7" stroke="#6D98A7"/>
<path d="M136.723 1.56456L139.745 10.5245L139.86 10.8647H140.219H149.945L142.093 16.3609L141.786 16.5756L141.906 16.9303L144.915 25.8529L137.01 20.3199L136.723 20.1192L136.437 20.3199L128.532 25.8529L131.541 16.9303L131.661 16.5756L131.354 16.3609L123.502 10.8647H133.228H133.587L133.701 10.5245L136.723 1.56456Z" fill="#6D98A7" stroke="#6D98A7"/>
</svg>
